<svg width="3840" height="3840" viewBox="-2 -8 84 88" fill="none" xmlns="http://www.w3.org/2000/svg">
  <defs>
    <linearGradient id="hd" x1="18" y1="8" x2="62" y2="46" gradientUnits="userSpaceOnUse">
      <stop stop-color="#A5B4FC"/>
      <stop offset="1" stop-color="#818CF8"/>
    </linearGradient>
    <linearGradient id="bd" x1="20" y1="46" x2="60" y2="74" gradientUnits="userSpaceOnUse">
      <stop stop-color="#818CF8"/>
      <stop offset="1" stop-color="#4338CA" stop-opacity="0.5"/>
    </linearGradient>
  </defs>

  <g>
    <!-- Body -->
    <path d="M22 54 Q22 48 40 46 Q58 48 58 54 L60 70 Q60 74 40 74 Q20 74 20 70 Z" fill="url(#bd)"/>
    <path d="M22 54 Q22 48 40 46 Q58 48 58 54 L59 58 Q40 56 21 58 Z" fill="white" opacity="0.25"/>

    <!-- Shoulder accents -->
    <rect x="16" y="52" width="8" height="4" rx="2" fill="#4338CA" opacity="0.5"/>
    <rect x="56" y="52" width="8" height="4" rx="2" fill="#4338CA" opacity="0.5"/>
    <circle cx="19" cy="54" r="1.5" fill="#6366F1"/>
    <circle cx="61" cy="54" r="1.5" fill="#6366F1"/>

    <!-- Chest core -->
    <circle cx="40" cy="62" r="5" fill="#4338CA" opacity="0.25"/>
    <circle cx="40" cy="62" r="3.5" fill="#6366F1" opacity="0.6"/>
    <circle cx="40" cy="62" r="2" fill="white" opacity="0.8"/>

    <!-- Neck -->
    <rect x="36" y="42" width="8" height="5" rx="3" fill="#818CF8"/>

    <!-- Head -->
    <rect x="18" y="8" width="44" height="38" rx="14" fill="url(#hd)"/>
    <ellipse cx="34" cy="14" rx="12" ry="3.5" fill="white" opacity="0.3"/>

    <!-- Agent-specific accessories -->
    
      <path d="M34 2 L40 -1 L46 2 L46 10 Q46 14 40 15 Q34 14 34 10 Z" fill="#4338CA" opacity="0.5" stroke="#4338CA" stroke-width="1.2"/>
      <path d="M37 5 L40 3 L43 5 L43 9 Q43 11 40 12 Q37 11 37 9 Z" fill="#6366F1" opacity="0.5"/>
      <circle cx="40" cy="8" r="1.8" fill="white" opacity="0.7"/>
      <rect x="14" y="56" width="4" height="10" rx="2" fill="#4338CA" opacity="0.35"/>
      <rect x="62" y="56" width="4" height="10" rx="2" fill="#4338CA" opacity="0.35"/>

    <!-- Face panel -->
    <rect x="24" y="20" width="32" height="18" rx="9" fill="white" opacity="0.1"/>

    <!-- Eyes -->
    <circle cx="33" cy="27" r="6.5" fill="white"/>
    <circle cx="47" cy="27" r="6.5" fill="white"/>
    <circle cx="33" cy="27" r="4.5" fill="#4338CA"/>
    <circle cx="47" cy="27" r="4.5" fill="#4338CA"/>
    <circle cx="34.5" cy="25.5" r="1.8" fill="white" opacity="0.9"/>
    <circle cx="48.5" cy="25.5" r="1.8" fill="white" opacity="0.9"/>

    <!-- Mouth -->
    <path d="M34 37 Q40 42 46 37" stroke="#4338CA" stroke-width="2" stroke-linecap="round" fill="none" opacity="0.65"/>

    <!-- Ear panels -->
    <rect x="12" y="22" width="6" height="12" rx="3" fill="#818CF8" stroke="#4338CA" stroke-width="0.8"/>
    <rect x="13.5" y="25.5" width="3" height="3" rx="1.5" fill="#6366F1" opacity="0.75"/>
    <rect x="62" y="22" width="6" height="12" rx="3" fill="#818CF8" stroke="#4338CA" stroke-width="0.8"/>
    <rect x="63.5" y="25.5" width="3" height="3" rx="1.5" fill="#6366F1" opacity="0.75"/>

    <!-- Status indicator -->
    <circle cx="60" cy="12" r="4" fill="white"/>
    <circle cx="60" cy="12" r="2.5" fill="#10b981"/>
  </g>
</svg>