<svg width="3840" height="3840" viewBox="-2 -8 84 88" fill="none" xmlns="http://www.w3.org/2000/svg">
  <defs>
    <linearGradient id="hd" x1="18" y1="8" x2="62" y2="46" gradientUnits="userSpaceOnUse">
      <stop stop-color="#67E8F9"/>
      <stop offset="1" stop-color="#22D3EE"/>
    </linearGradient>
    <linearGradient id="bd" x1="20" y1="46" x2="60" y2="74" gradientUnits="userSpaceOnUse">
      <stop stop-color="#22D3EE"/>
      <stop offset="1" stop-color="#0E7490" stop-opacity="0.5"/>
    </linearGradient>
  </defs>

  <g>
    <!-- Body -->
    <path d="M22 54 Q22 48 40 46 Q58 48 58 54 L60 70 Q60 74 40 74 Q20 74 20 70 Z" fill="url(#bd)"/>
    <path d="M22 54 Q22 48 40 46 Q58 48 58 54 L59 58 Q40 56 21 58 Z" fill="white" opacity="0.25"/>

    <!-- Shoulder accents -->
    <rect x="16" y="52" width="8" height="4" rx="2" fill="#0E7490" opacity="0.5"/>
    <rect x="56" y="52" width="8" height="4" rx="2" fill="#0E7490" opacity="0.5"/>
    <circle cx="19" cy="54" r="1.5" fill="#06B6D4"/>
    <circle cx="61" cy="54" r="1.5" fill="#06B6D4"/>

    <!-- Chest core -->
    <circle cx="40" cy="62" r="5" fill="#0E7490" opacity="0.25"/>
    <circle cx="40" cy="62" r="3.5" fill="#06B6D4" opacity="0.6"/>
    <circle cx="40" cy="62" r="2" fill="white" opacity="0.8"/>

    <!-- Neck -->
    <rect x="36" y="42" width="8" height="5" rx="3" fill="#22D3EE"/>

    <!-- Head -->
    <rect x="18" y="8" width="44" height="38" rx="14" fill="url(#hd)"/>
    <ellipse cx="34" cy="14" rx="12" ry="3.5" fill="white" opacity="0.3"/>

    <!-- Agent-specific accessories -->
    
      <ellipse cx="40" cy="4" rx="12" ry="3.5" fill="none" stroke="#0E7490" stroke-width="1.5" opacity="0.4"/>
      <ellipse cx="40" cy="4" rx="7" ry="2.5" fill="#0E7490" opacity="0.4"/>
      <circle cx="40" cy="4" r="3" fill="#06B6D4" opacity="0.85"/>
      <circle cx="40" cy="4" r="1.5" fill="white" opacity="0.6"/>
      <line x1="40" y1="7" x2="40" y2="8" stroke="#0E7490" stroke-width="2" opacity="0.5"/>
      <line x1="32" y1="56" x2="32" y2="68" stroke="#06B6D4" stroke-width="1" opacity="0.3" stroke-dasharray="2 3"/>
      <line x1="48" y1="56" x2="48" y2="68" stroke="#06B6D4" stroke-width="1" opacity="0.3" stroke-dasharray="2 3"/>

    <!-- Face panel -->
    <rect x="24" y="20" width="32" height="18" rx="9" fill="white" opacity="0.1"/>

    <!-- Eyes -->
    <circle cx="33" cy="27" r="6.5" fill="white"/>
    <circle cx="47" cy="27" r="6.5" fill="white"/>
    <circle cx="33" cy="27" r="4.5" fill="#0E7490"/>
    <circle cx="47" cy="27" r="4.5" fill="#0E7490"/>
    <circle cx="34.5" cy="25.5" r="1.8" fill="white" opacity="0.9"/>
    <circle cx="48.5" cy="25.5" r="1.8" fill="white" opacity="0.9"/>

    <!-- Mouth -->
    <path d="M34 37 Q40 42 46 37" stroke="#0E7490" stroke-width="2" stroke-linecap="round" fill="none" opacity="0.65"/>

    <!-- Ear panels -->
    <rect x="12" y="22" width="6" height="12" rx="3" fill="#22D3EE" stroke="#0E7490" stroke-width="0.8"/>
    <rect x="13.5" y="25.5" width="3" height="3" rx="1.5" fill="#06B6D4" opacity="0.75"/>
    <rect x="62" y="22" width="6" height="12" rx="3" fill="#22D3EE" stroke="#0E7490" stroke-width="0.8"/>
    <rect x="63.5" y="25.5" width="3" height="3" rx="1.5" fill="#06B6D4" opacity="0.75"/>

    <!-- Status indicator -->
    <circle cx="60" cy="12" r="4" fill="white"/>
    <circle cx="60" cy="12" r="2.5" fill="#10b981"/>
  </g>
</svg>